<svg width="404" height="405" viewBox="0 0 404 405" fill="none" xmlns="http://www.w3.org/2000/svg">
<path d="M148.656 102.86H123.235V135.705H104.695V102.86H30.3477V89.4926L98.7718 2.02768H119.413L53.8546 86.435H105.268V57.4088H123.233V86.435H148.654V102.858L148.656 102.86Z" fill="black"/>
<path d="M186.593 129.118C178.376 123.709 171.907 115.845 167.194 105.533C162.479 95.2214 160.121 82.9999 160.121 68.8665C160.121 54.7331 162.476 42.5138 167.194 32.1997C171.907 21.8877 178.376 14.0285 186.593 8.61532C194.81 3.20658 204.207 0.5 214.784 0.5C225.361 0.5 234.566 3.20658 242.785 8.61532C251.005 14.0285 257.47 21.8877 262.185 32.1997C266.898 42.5116 269.258 54.7331 269.258 68.8665C269.258 82.9999 266.898 95.2192 262.185 105.533C257.47 115.845 251.005 123.709 242.785 129.118C234.566 134.531 225.231 137.233 214.784 137.233C204.338 137.233 194.81 134.529 186.593 129.118ZM240.492 107.061C246.924 98.2768 250.143 85.5475 250.143 68.8665C250.143 52.1855 246.924 39.4584 240.492 30.672C234.056 21.8877 225.487 17.4945 214.784 17.4945C204.082 17.4945 195.319 21.8855 188.887 30.672C182.45 39.4562 179.236 52.1877 179.236 68.8665C179.236 85.5453 182.453 98.2746 188.887 107.061C195.319 115.845 203.953 120.239 214.784 120.239C225.615 120.239 234.056 115.848 240.492 107.061Z" fill="black"/>
<path d="M404 102.86H378.579V135.705H360.039V102.86H285.689V89.4926L354.116 2.02768H374.757L309.201 86.435H360.614V57.4088H378.579V86.435H404V102.858V102.86Z" fill="black"/>
<path d="M142.682 105.781H117.261V138.626H98.7211V105.781H24.3711V92.4133L92.7952 4.94839H113.436L47.8803 89.3579H99.2934V60.3317H117.259V89.3579H142.679V105.781H142.682Z" fill="url(#paint0_linear_1154_2633)"/>
<path d="M180.619 132.038C172.401 126.63 165.932 118.766 161.219 108.454C156.504 98.1422 154.146 85.9206 154.146 71.7872C154.146 57.6539 156.502 45.4345 161.219 35.1204C165.932 24.8084 172.399 16.9492 180.619 11.536C188.838 6.1273 198.233 3.42072 208.81 3.42072C219.387 3.42072 228.591 6.1273 236.811 11.536C245.03 16.9492 251.495 24.8084 256.21 35.1204C260.923 45.4323 263.283 57.6539 263.283 71.7872C263.283 85.9206 260.923 98.1399 256.21 108.454C251.495 118.766 245.03 126.63 236.811 132.038C228.591 137.452 219.256 140.154 208.81 140.154C198.363 140.154 188.836 137.449 180.619 132.038ZM234.517 109.982C240.949 101.198 244.169 88.4682 244.169 71.7872C244.169 55.1062 240.949 42.3791 234.517 33.5927C228.081 24.8084 219.513 20.4152 208.81 20.4152C198.107 20.4152 189.344 24.8062 182.912 33.5927C176.476 42.3769 173.261 55.1084 173.261 71.7872C173.261 88.466 176.478 101.195 182.912 109.982C189.344 118.766 197.979 123.159 208.81 123.159C219.641 123.159 228.081 118.768 234.517 109.982Z" fill="url(#paint1_linear_1154_2633)"/>
<path d="M398.026 105.781H372.605V138.626H354.065V105.781H279.715V92.4133L348.142 4.94839H368.783L303.227 89.3557H354.64V60.3295H372.605V89.3557H398.026V105.778V105.781Z" fill="url(#paint2_linear_1154_2633)"/>
<path d="M177.143 207.083L169.942 191.713L160.377 196.208C157.9 193.082 154.97 190.433 151.727 188.311L155.317 178.355L139.376 172.586L135.785 182.543C131.938 182.099 127.992 182.26 124.095 183.079L119.607 173.5L104.262 180.713L108.75 190.292C105.628 192.771 102.985 195.709 100.866 198.957L90.9255 195.36L85.1675 211.328L95.1081 214.925C94.664 218.779 94.8252 222.729 95.6428 226.634L85.9762 231.685L93.2786 246.501L102.844 242.006C105.32 245.132 108.25 247.781 111.494 249.903L107.903 259.859L123.845 265.628L127.435 255.671C131.282 256.115 135.226 255.954 139.126 255.135L143.613 264.714L158.958 257.501L154.471 247.922C157.593 245.443 160.238 242.507 162.354 239.257L172.295 242.854L178.053 226.886L168.112 223.289C168.557 219.435 168.395 215.485 167.578 211.58L177.143 207.085V207.083ZM140.692 238.489C130.007 243.511 117.278 238.906 112.263 228.204C107.247 217.499 111.845 204.752 122.533 199.727C133.218 194.705 145.947 199.31 150.962 210.013C155.978 220.718 151.38 233.467 140.692 238.489Z" fill="white"/>
<path d="M123.85 266.113C123.794 266.113 123.737 266.105 123.684 266.085L107.742 260.316C107.49 260.223 107.358 259.945 107.451 259.694L110.911 250.097C107.809 248.022 105.051 245.505 102.709 242.611L93.4931 246.944C93.2523 247.057 92.965 246.958 92.8479 246.719L85.5455 231.904C85.4284 231.667 85.5234 231.38 85.7576 231.257L95.0972 226.376C94.3681 222.715 94.1979 218.978 94.5868 215.254L85.0064 211.788C84.7545 211.697 84.6219 211.417 84.7147 211.165L90.4727 195.197C90.5169 195.076 90.6075 194.976 90.7246 194.921C90.8417 194.866 90.9765 194.859 91.098 194.903L100.676 198.369C102.749 195.263 105.261 192.502 108.151 190.153L103.825 180.92C103.71 180.677 103.816 180.388 104.059 180.273L119.404 173.061C119.521 173.006 119.656 172.999 119.777 173.043C119.899 173.087 119.998 173.178 120.054 173.295L124.38 182.527C128.028 181.799 131.755 181.629 135.465 182.02L138.925 172.423C138.969 172.302 139.06 172.202 139.177 172.147C139.294 172.092 139.429 172.085 139.55 172.129L155.492 177.898C155.744 177.991 155.876 178.269 155.784 178.52L152.324 188.117C155.426 190.192 158.183 192.709 160.525 195.603L169.741 191.27C169.858 191.214 169.993 191.208 170.114 191.252C170.236 191.296 170.335 191.387 170.391 191.504L177.591 206.873C177.706 207.116 177.6 207.405 177.357 207.52L168.139 211.854C168.866 215.507 169.036 219.241 168.647 222.958L178.228 226.424C178.48 226.515 178.612 226.795 178.519 227.047L172.761 243.015C172.717 243.136 172.627 243.236 172.51 243.291C172.392 243.346 172.258 243.353 172.136 243.308L162.558 239.842C160.485 242.951 157.973 245.71 155.083 248.057L159.409 257.292C159.524 257.534 159.418 257.824 159.175 257.938L143.83 265.151C143.713 265.206 143.578 265.213 143.457 265.169C143.335 265.124 143.236 265.034 143.181 264.917L138.854 255.684C135.204 256.411 131.479 256.583 127.769 256.192L124.309 265.789C124.265 265.91 124.174 266.01 124.057 266.065C123.991 266.096 123.92 266.111 123.85 266.111V266.113ZM108.531 259.568L123.556 265.005L126.98 255.508C127.058 255.296 127.272 255.163 127.495 255.19C131.355 255.636 135.237 255.459 139.029 254.66C139.25 254.614 139.475 254.726 139.57 254.929L143.852 264.067L158.316 257.267L154.034 248.128C153.939 247.925 153.996 247.682 154.171 247.54C157.207 245.127 159.823 242.251 161.948 238.99C162.072 238.8 162.308 238.721 162.523 238.798L172.004 242.229L177.432 227.177L167.949 223.746C167.737 223.669 167.604 223.457 167.631 223.232C168.077 219.362 167.898 215.474 167.103 211.677C167.057 211.456 167.169 211.233 167.372 211.136L176.496 206.849L169.708 192.36L160.585 196.647C160.379 196.742 160.136 196.685 159.995 196.508C157.587 193.468 154.714 190.846 151.46 188.718C151.27 188.594 151.192 188.358 151.267 188.146L154.692 178.646L139.667 173.209L136.243 182.706C136.168 182.92 135.953 183.053 135.728 183.024C131.868 182.578 127.986 182.757 124.194 183.554C123.971 183.6 123.748 183.488 123.653 183.285L119.371 174.147L104.907 180.944L109.189 190.084C109.284 190.287 109.227 190.53 109.052 190.671C106.017 193.084 103.398 195.961 101.275 199.222C101.151 199.411 100.913 199.489 100.701 199.414L91.2195 195.983L85.7907 211.035L95.274 214.465C95.4861 214.543 95.6187 214.755 95.5921 214.98C95.1458 218.85 95.3248 222.737 96.1202 226.535C96.1644 226.749 96.0628 226.965 95.8683 227.067L86.6237 231.897L93.5041 245.858L102.634 241.567C102.839 241.472 103.082 241.529 103.224 241.706C105.632 244.748 108.505 247.368 111.759 249.496C111.947 249.62 112.026 249.856 111.951 250.068L108.527 259.568H108.531ZM131.627 241.015C129.128 241.015 126.622 240.58 124.201 239.708C118.701 237.723 114.304 233.71 111.823 228.409C106.704 217.479 111.414 204.414 122.325 199.286C127.606 196.804 133.536 196.528 139.022 198.509C144.522 200.493 148.919 204.507 151.402 209.807C156.522 220.737 151.811 233.802 140.9 238.931C137.948 240.317 134.793 241.017 131.627 241.017V241.015ZM131.601 198.175C128.576 198.175 125.562 198.842 122.74 200.169C112.314 205.07 107.813 217.554 112.705 227.998C115.078 233.063 119.278 236.897 124.532 238.794C129.775 240.686 135.441 240.421 140.485 238.05C150.912 233.149 155.412 220.665 150.521 210.22C148.148 205.156 143.947 201.321 138.693 199.425C136.382 198.59 133.987 198.175 131.601 198.175Z" fill="black"/>
<path d="M81.7736 144.554C86.5852 144.554 90.4857 140.365 90.4857 135.198C90.4857 130.03 86.5852 125.842 81.7736 125.842C76.9621 125.842 73.0615 130.03 73.0615 135.198C73.0615 140.365 76.9621 144.554 81.7736 144.554Z" fill="#FDA4FF"/>
<path d="M84.7233 134.253H73.0615V153.958H84.7233V134.253Z" fill="#FDA4FF"/>
<path d="M84.3413 154.446C84.0718 154.446 83.853 154.227 83.853 153.958V139.999C83.853 139.73 84.0718 139.511 84.3413 139.511C84.6109 139.511 84.8296 139.73 84.8296 139.999V153.958C84.8296 154.227 84.6109 154.446 84.3413 154.446Z" fill="black"/>
<path d="M85.8834 136.752C82.2886 140.754 76.7449 141.646 73.5036 138.741C70.2622 135.836 70.5472 130.235 74.1421 126.232C77.737 122.23 84.5555 122.908 87.7991 125.813C91.0404 128.718 89.4783 132.749 85.8834 136.754V136.752Z" fill="black"/>
<path d="M36.4126 379.229L18.7852 371.052L30.6591 348.918L48.2865 357.095L36.4126 379.229Z" fill="#FDA4FF"/>
<path d="M38.1011 394.426H3.6084L17.7161 369.509L43.1564 367.31L38.1011 394.426Z" fill="white"/>
<path d="M38.101 394.914H3.60837C3.43602 394.914 3.27473 394.822 3.18635 394.674C3.10018 394.524 3.09797 394.34 3.18414 394.188L17.2919 369.27C17.3714 369.131 17.5128 369.038 17.6741 369.025L43.1144 366.826C43.2646 366.809 43.4149 366.871 43.5165 366.985C43.6182 367.098 43.6624 367.252 43.6336 367.403L38.5783 394.519C38.5341 394.749 38.333 394.917 38.0988 394.917L38.101 394.914ZM4.44577 393.941H37.6967L42.562 367.851L18.0166 369.972L4.44798 393.941H4.44577Z" fill="black"/>
<path d="M43.457 372.204L12.8066 377.984L18.7767 367.31H43.1565L43.457 372.204Z" fill="black"/>
<path d="M40.5136 404.012H33.969L31.1762 400.919L28.3745 404.012H15.2081L12.2517 400.919L9.18493 404.012H0L1.24616 393.822H39.2674L40.5136 404.012Z" fill="black"/>
<path d="M122.767 397.042C122.893 396.259 122.959 395.457 122.959 394.643C122.959 385.689 115.153 378.432 105.524 378.432C95.8951 378.432 88.0889 385.691 88.0889 394.643C88.0889 395.457 88.1552 396.259 88.2811 397.042H122.767Z" fill="white"/>
<path d="M122.767 397.528H88.2809C88.0422 397.528 87.8367 397.354 87.7992 397.118C87.6688 396.294 87.6025 395.462 87.6025 394.641C87.6025 385.432 95.6429 377.942 105.524 377.942C115.405 377.942 123.445 385.432 123.445 394.641C123.445 395.462 123.379 396.294 123.249 397.118C123.211 397.354 123.008 397.528 122.767 397.528ZM88.7029 396.555H122.347C122.431 395.917 122.473 395.274 122.473 394.643C122.473 385.973 114.87 378.918 105.526 378.918C96.1821 378.918 88.5791 385.971 88.5791 394.643C88.5791 395.276 88.6211 395.919 88.7051 396.555H88.7029Z" fill="black"/>
<path d="M119.755 393.371H82.8232L87.3417 371.632H106.202L119.755 393.371Z" fill="white"/>
<path d="M108.827 375.842L85.7266 379.401L87.3417 371.632H106.202L108.827 375.842Z" fill="black"/>
<path d="M114.47 385.384C114.307 385.384 114.148 385.302 114.057 385.154L110.524 379.487C110.383 379.26 110.451 378.96 110.681 378.816C110.909 378.675 111.209 378.743 111.353 378.973L114.886 384.64C115.027 384.867 114.959 385.168 114.729 385.311C114.649 385.362 114.561 385.384 114.473 385.384H114.47Z" fill="black"/>
<path d="M122.959 395.128C122.959 395.128 122.948 395.128 122.944 395.128L82.808 393.859C82.6644 393.855 82.5296 393.786 82.4412 393.674C82.3528 393.561 82.3175 393.413 82.3462 393.274L86.8625 371.535C86.9088 371.31 87.1099 371.147 87.3397 371.147H106.202C106.37 371.147 106.527 371.233 106.615 371.376L111.255 378.821C118.553 381.114 123.445 387.45 123.445 394.643C123.445 394.775 123.392 394.901 123.297 394.992C123.207 395.08 123.085 395.128 122.957 395.128H122.959ZM83.4178 392.903L122.462 394.137C122.239 387.528 117.608 381.763 110.796 379.697C110.683 379.662 110.586 379.589 110.524 379.487L105.931 372.118H87.7352L83.4156 392.901L83.4178 392.903Z" fill="black"/>
<path d="M122.929 393.883L82.8239 393.859C82.6781 393.859 82.5389 393.793 82.4461 393.68C82.3533 393.568 82.3179 393.418 82.3466 393.274L86.8651 371.535C86.9115 371.31 87.1126 371.147 87.3423 371.147H106.205C106.373 371.147 106.53 371.233 106.618 371.376L111.353 378.971C111.494 379.198 111.426 379.498 111.196 379.642C110.969 379.783 110.668 379.715 110.525 379.485L105.933 372.12H87.7378L83.4227 392.886L122.929 392.91C123.198 392.91 123.415 393.128 123.415 393.398C123.415 393.667 123.196 393.883 122.926 393.883H122.929Z" fill="black"/>
<path d="M125.001 404.014H117.884L114.848 400.727L111.801 404.014H97.4815L94.2667 400.727L90.9326 404.014H80.9434L82.3 393.371H123.647L125.001 404.014Z" fill="black"/>
<path d="M93.6746 301.899L77.1474 214.975L45.0167 220.256L63.6738 296.923L21.7285 360.389L50.0345 375.48L93.6746 301.899Z" fill="url(#paint3_linear_1154_2633)"/>
<path d="M73.0178 241.96L82.8236 299.875L40.1602 370.217L50.0345 375.48L93.6745 301.899L73.0178 241.96Z" fill="black"/>
<path d="M119.022 372.648L109.987 297.965V220.225H68.3247L85.4418 292.495L81.8756 372.648H119.022Z" fill="url(#paint4_linear_1154_2633)"/>
<path d="M119.022 373.134H81.8758C81.7432 373.134 81.6151 373.078 81.5245 372.984C81.4339 372.889 81.3831 372.758 81.3897 372.626L84.9537 292.543L72.5959 242.284L66.3695 238.886C66.1331 238.758 66.0469 238.463 66.175 238.226C66.3032 237.99 66.5993 237.904 66.8357 238.032L73.2499 241.531C73.3692 241.597 73.4576 241.71 73.4885 241.842L85.9148 292.378C85.9258 292.422 85.9303 292.468 85.928 292.515L82.384 372.16H118.47L109.501 298.023C109.499 298.003 109.497 297.983 109.497 297.965V220.227C109.497 219.958 109.716 219.74 109.985 219.74C110.255 219.74 110.473 219.958 110.473 220.227V297.937L119.504 372.591C119.521 372.73 119.477 372.869 119.384 372.972C119.292 373.076 119.159 373.136 119.02 373.136L119.022 373.134Z" fill="black"/>
<path d="M109.988 229.334L48.6206 235.065L45.0942 220.572H109.988V229.334Z" fill="black"/>
<path d="M161.445 114.869L165.78 115.223L166.878 105.215C167.039 103.743 166.199 102.469 165.002 102.372C163.804 102.275 162.704 103.39 162.541 104.862L161.442 114.869H161.445Z" fill="#FDA4FF"/>
<path d="M165.384 117.896L169.836 118.258L170.934 108.251C171.095 106.778 170.256 105.505 169.058 105.408C167.861 105.31 166.76 106.425 166.597 107.898L165.384 117.896Z" fill="#FDA4FF"/>
<path d="M169.728 119.159L173.599 119.475L174.58 110.538C174.724 109.222 173.975 108.085 172.905 107.999C171.836 107.913 170.853 108.909 170.709 110.225L169.728 119.161V119.159Z" fill="#FDA4FF"/>
<path d="M157.555 110.397L161.393 113.362L168.959 94.6916C169.474 93.4707 169.027 91.9916 167.96 91.3867C166.893 90.7818 165.611 91.2829 165.096 92.5038L157.553 110.395L157.555 110.397Z" fill="#FDA4FF"/>
<path d="M150.357 125.634L157.587 120.007L153.017 103.489C152.73 102.083 151.548 101.303 150.373 101.752C149.199 102.2 148.479 103.701 148.766 105.109L150.322 112.75L150.357 125.634Z" fill="#FDA4FF"/>
<path d="M150.481 126.04L145.757 141.465L160.989 147.494L165.346 133.842L173.59 119.497L157.556 110.397L150.481 126.04Z" fill="#FDA4FF"/>
<path d="M145.757 141.465L160.989 147.494L163.641 139.132L149.254 129.91L145.757 141.465Z" fill="#020202"/>
<path d="M165.914 114.627C165.897 114.627 165.879 114.627 165.861 114.624C165.594 114.596 165.399 114.355 165.428 114.088L166.391 105.162C166.546 103.761 166.162 103.374 165.766 103.178C165.525 103.059 165.426 102.765 165.545 102.527C165.665 102.286 165.956 102.187 166.197 102.306C167.461 102.931 167.465 104.297 167.359 105.268L166.396 114.192C166.369 114.441 166.157 114.627 165.912 114.627H165.914Z" fill="black"/>
<path d="M169.947 117.649C169.929 117.649 169.911 117.649 169.891 117.647C169.624 117.618 169.432 117.377 169.46 117.108L170.446 108.196C170.521 107.518 170.349 106.871 169.978 106.421C169.796 106.2 169.48 105.931 169.016 105.893C168.086 105.807 167.213 106.741 167.081 107.953L166.396 114.196C166.367 114.463 166.124 114.653 165.859 114.627C165.592 114.598 165.399 114.357 165.428 114.09L166.113 107.847C166.303 106.116 167.629 104.809 169.098 104.924C169.726 104.975 170.307 105.288 170.733 105.803C171.272 106.454 171.522 107.366 171.42 108.306L170.435 117.218C170.408 117.468 170.196 117.651 169.951 117.651L169.947 117.649Z" fill="black"/>
<path d="M161.754 113.26C161.694 113.26 161.632 113.249 161.572 113.225C161.323 113.125 161.201 112.843 161.301 112.593L168.508 94.5106C168.932 93.5017 168.579 92.2963 167.721 91.8106C167.357 91.6053 166.946 91.5633 166.561 91.6936C166.122 91.8437 165.753 92.208 165.547 92.6959L158.004 110.587C157.9 110.834 157.613 110.949 157.365 110.847C157.118 110.743 157.001 110.456 157.105 110.209L164.648 92.3184C164.962 91.5766 165.543 91.0136 166.246 90.773C166.895 90.55 167.589 90.6207 168.199 90.9651C169.471 91.687 170.013 93.442 169.405 94.8814L162.202 112.955C162.127 113.145 161.944 113.262 161.749 113.262L161.754 113.26Z" fill="black"/>
<path d="M146.477 139.271C146.429 139.271 146.38 139.264 146.331 139.249C146.075 139.169 145.931 138.895 146.013 138.637L149.993 125.967L149.836 112.801L148.289 105.207C147.951 103.551 148.791 101.833 150.198 101.297C150.848 101.05 151.535 101.094 152.131 101.421C152.818 101.798 153.313 102.516 153.492 103.392L156.367 113.775C156.44 114.033 156.287 114.302 156.027 114.373C155.77 114.443 155.499 114.293 155.428 114.033L152.547 103.617C152.419 102.99 152.098 102.511 151.663 102.273C151.316 102.081 150.929 102.059 150.545 102.204C149.601 102.564 149.005 103.847 149.244 105.01L150.799 112.651C150.806 112.682 150.808 112.71 150.81 112.741L150.967 126.031C150.967 126.082 150.96 126.133 150.945 126.184L146.943 138.928C146.877 139.136 146.685 139.268 146.479 139.268L146.477 139.271Z" fill="black"/>
<path d="M154.303 117.77C154.235 117.77 154.162 117.755 154.096 117.724C153.853 117.609 153.749 117.318 153.864 117.075L157.116 110.189C157.231 109.946 157.52 109.84 157.766 109.957C158.009 110.072 158.113 110.364 157.998 110.607L154.745 117.492C154.661 117.669 154.487 117.77 154.303 117.77Z" fill="black"/>
<path d="M161.807 145.309C161.758 145.309 161.707 145.302 161.656 145.284C161.4 145.203 161.259 144.927 161.343 144.671L164.882 133.69C164.893 133.657 164.907 133.626 164.924 133.597L172.551 120.32C172.927 119.665 173.172 118.905 173.258 118.121L174.096 110.483C174.16 109.891 174.012 109.326 173.689 108.935C173.532 108.746 173.263 108.514 172.867 108.483C172.063 108.408 171.31 109.22 171.195 110.275L170.435 117.214C170.406 117.481 170.163 117.671 169.898 117.645C169.63 117.616 169.438 117.375 169.467 117.108L170.227 110.169C170.399 108.598 171.619 107.412 172.949 107.511C173.524 107.558 174.054 107.843 174.445 108.315C174.936 108.909 175.163 109.737 175.07 110.589L174.233 118.227C174.133 119.144 173.846 120.033 173.402 120.804L165.801 134.036L162.277 144.969C162.211 145.174 162.019 145.306 161.813 145.306L161.807 145.309Z" fill="black"/>
<path d="M14.7571 114.101L14.4898 114.256C13.712 114.706 13.3386 115.746 13.617 116.695L13.8888 117.625C13.4911 116.426 12.2781 115.872 11.2705 116.452C10.4265 116.94 10.0222 118.068 10.3226 119.099L12.8017 127.579C13.1398 128.738 13.6811 129.804 14.3904 130.712L15.4089 132.032L15.3824 132.043L14.3042 130.663C13.575 129.731 13.0227 128.636 12.6824 127.444L11.286 122.508C10.9413 121.294 9.73933 120.715 8.74726 121.287L8.60364 121.369C7.79717 121.835 7.41051 122.914 7.69775 123.899L9.47198 129.99C9.76364 130.985 10.2033 131.91 10.7734 132.729C10.4994 132.429 10.2431 132.109 10.0089 131.767L7.23375 127.674C6.55101 126.667 5.2474 126.597 4.48512 127.524L4.37464 127.658C3.75377 128.413 3.71179 129.579 4.27301 130.394L7.74636 135.421C8.407 136.376 9.23336 137.167 10.1702 137.741L19.4369 143.425L21.7613 153.148L33.5114 149.34L33.5755 138.028C33.5844 136.275 33.3457 134.535 32.8663 132.871L30.1375 123.406C29.7818 122.172 28.624 121.503 27.5502 121.912L27.3734 121.98C26.3018 122.391 25.7207 123.722 26.0764 124.956L28.7279 134.151L27.7977 133.919C27.3911 133.818 27.0155 133.604 26.6973 133.301L21.147 126.21C20.3008 125.128 19.66 123.857 19.2645 122.475L17.2031 115.265C16.8694 114.097 15.7116 113.543 14.7571 114.095V114.101ZM14.1296 118.455L16.1337 125.316C16.2817 125.826 16.4717 126.316 16.6971 126.784C16.4165 126.232 16.1845 125.647 16.0099 125.036L14.1296 118.455Z" fill="#FDA4FF"/>
<path d="M21.757 153.497L33.5072 149.689L33.5337 145.044L20.3584 148.655L21.757 153.497Z" fill="#020202"/>
<path d="M28.6749 134.997C28.6351 134.997 28.5954 134.992 28.5556 134.981L28.37 134.935C27.3227 134.674 26.3903 134.054 25.6788 133.144L20.7627 126.864C19.8722 125.727 19.2116 124.413 18.7962 122.963L16.7347 115.753C16.6044 115.3 16.3149 114.953 15.9393 114.801C15.63 114.675 15.2985 114.702 15.0025 114.872L14.7351 115.026C14.1496 115.364 13.8712 116.172 14.0855 116.907L16.6044 125.526C16.9269 126.632 17.4329 127.63 18.1112 128.495L21.2068 132.453C21.3725 132.665 21.3349 132.972 21.1228 133.138C20.9107 133.303 20.6036 133.266 20.4379 133.054L17.3423 129.096C16.5889 128.133 16.0255 127.025 15.6697 125.8L13.1509 117.181C12.8084 116.009 13.2702 114.748 14.249 114.183L14.5164 114.028C15.0687 113.708 15.7206 113.662 16.3061 113.898C16.9623 114.163 17.4616 114.744 17.6738 115.485L19.7352 122.696C20.1153 124.025 20.7207 125.226 21.5316 126.265L26.4477 132.546C27.0244 133.284 27.7712 133.785 28.6086 133.992L28.7942 134.039C29.0549 134.105 29.214 134.367 29.1477 134.63C29.0925 134.851 28.8937 134.999 28.6749 134.999V134.997Z" fill="black"/>
<path d="M17.0417 134.939C16.8959 134.939 16.7523 134.875 16.6573 134.752L14.0059 131.361C13.2524 130.398 12.689 129.29 12.3333 128.065L9.8564 119.585C9.48962 118.331 9.98234 116.984 11.0274 116.382C11.6085 116.046 12.2692 115.991 12.8878 116.225C13.5706 116.486 14.1053 117.066 14.355 117.821C14.4389 118.077 14.3019 118.353 14.0456 118.437C13.7871 118.521 13.5131 118.382 13.4292 118.128C13.2723 117.653 12.9475 117.291 12.5409 117.137C12.2007 117.007 11.8361 117.04 11.5135 117.225C10.8639 117.6 10.5524 118.499 10.791 119.314L13.2679 127.793C13.5905 128.899 14.0964 129.897 14.7748 130.762L17.4262 134.153C17.5919 134.365 17.5543 134.672 17.3422 134.838C17.2538 134.906 17.1478 134.941 17.0439 134.941L17.0417 134.939Z" fill="black"/>
<path d="M21.821 154.601L18.7719 143.94L9.91173 138.505C8.91082 137.891 8.0469 137.065 7.34207 136.047L3.86872 131.018C3.17935 130.023 3.23238 128.625 3.99466 127.698L4.10514 127.563C4.5625 127.005 5.21652 126.705 5.89484 126.736C6.58421 126.767 7.21834 127.137 7.63372 127.751L10.9347 132.447C11.0894 132.668 11.0364 132.97 10.8154 133.125C10.5967 133.279 10.2896 133.226 10.1371 133.005L6.83167 128.301C6.58421 127.937 6.22847 127.722 5.85065 127.705C5.48387 127.689 5.12372 127.857 4.85858 128.179L4.7481 128.314C4.26422 128.901 4.23108 129.826 4.67077 130.462L8.14412 135.489C8.77162 136.394 9.53832 137.129 10.4221 137.67L19.6048 143.304L22.4684 153.314L33.021 149.349L33.0829 138.37C33.0939 136.661 32.8597 134.972 32.3935 133.352L29.6647 123.888C29.5189 123.382 29.1985 122.974 28.7854 122.768C28.4429 122.598 28.0739 122.579 27.7204 122.713L27.5436 122.782C26.704 123.102 26.2533 124.173 26.5405 125.168L29.9498 136.997C30.0249 137.255 29.8746 137.524 29.6161 137.599C29.3576 137.675 29.0881 137.524 29.0129 137.266L25.6037 125.438C25.1816 123.967 25.8953 122.369 27.1967 121.872L27.3735 121.806C27.9789 121.574 28.6351 121.607 29.2206 121.899C29.8769 122.225 30.3806 122.852 30.6016 123.618L33.3303 133.083C33.823 134.791 34.0683 136.573 34.0595 138.377L33.9932 150.024L21.8232 154.598L21.821 154.601Z" fill="black"/>
<path d="M13.4338 136.847C13.2924 136.847 13.1532 136.785 13.056 136.668L10.683 133.78C9.92292 132.809 9.35949 131.701 9.00155 130.475L7.22732 124.384C6.876 123.177 7.35105 121.879 8.35859 121.296L8.49999 121.214C9.07005 120.885 9.74395 120.837 10.3449 121.08C11.0233 121.356 11.5359 121.954 11.7546 122.722L11.8607 123.097C11.9336 123.356 11.7833 123.625 11.5248 123.698C11.2685 123.773 10.9967 123.621 10.9238 123.362L10.8178 122.987C10.683 122.51 10.3781 122.144 9.98037 121.983C9.65336 121.85 9.30205 121.877 8.99051 122.058L8.8491 122.139C8.23485 122.493 7.94099 123.342 8.16636 124.113L9.94059 130.204C10.2632 131.31 10.7692 132.308 11.4475 133.173L13.8139 136.052C13.984 136.259 13.9553 136.566 13.7476 136.736C13.657 136.811 13.5465 136.847 13.4382 136.847H13.4338Z" fill="black"/>
<path d="M37.6214 148.918L42.363 198.204C43.1076 205.935 38.2644 212.898 31.5452 213.755C24.8261 214.611 18.7765 209.037 18.0341 201.306L13.2925 152.02L37.6214 148.92V148.918Z" fill="#FED101"/>
<path d="M166.548 141.16L144.08 132.827L127.44 174.231L147.248 188.98L166.548 141.16Z" fill="#FED101"/>
<path d="M106.664 152.664L56.2894 152.689C51.6274 152.691 47.2017 155.055 44.1902 159.153L21.1118 190.554C16.7525 196.5 17.4043 205.385 22.5679 210.403C27.7337 215.421 35.456 214.671 39.8153 208.728L46.1765 200.085L44.9745 221.839H111.465V187.85L129.8 201.988C131.833 203.546 134.172 204.165 136.431 203.933C140.134 203.553 143.313 200.738 144.829 196.833L150.353 182.602L115.46 155.724C112.855 153.729 109.795 152.664 106.666 152.664H106.664Z" fill="#FED101"/>
<path d="M21.1096 191.04C21.0102 191.04 20.9085 191.009 20.8224 190.945C20.6058 190.786 20.5572 190.482 20.7163 190.265L38.8542 165.537C39.0133 165.321 39.3182 165.272 39.5347 165.431C39.7512 165.59 39.7999 165.895 39.6408 166.111L21.5029 190.839C21.4079 190.969 21.2599 191.038 21.1096 191.038V191.04Z" fill="black"/>
<path d="M46.2032 200.125C46.2032 200.125 46.1833 200.125 46.1745 200.125C45.9049 200.109 45.7017 199.879 45.7171 199.61L47.5201 168.913C47.5356 168.646 47.7676 168.436 48.0349 168.456C48.3045 168.471 48.5077 168.701 48.4923 168.97L46.6893 199.668C46.6739 199.926 46.4595 200.127 46.2032 200.127V200.125Z" fill="black"/>
<path d="M39.8154 208.726L47.5509 172.849L46.1766 200.085L39.8154 208.726Z" fill="black"/>
<path d="M130.577 167.855C130.518 167.855 130.458 167.844 130.401 167.822C130.151 167.725 130.025 167.442 130.124 167.191L143.788 132.239C143.885 131.988 144.168 131.864 144.42 131.963C144.67 132.06 144.796 132.343 144.696 132.595L131.033 167.546C130.957 167.738 130.774 167.855 130.58 167.855H130.577Z" fill="black"/>
<path d="M135.575 204.465C133.443 204.465 131.335 203.738 129.554 202.374L104.114 182.883C103.9 182.719 103.86 182.413 104.023 182.201C104.187 181.989 104.494 181.947 104.706 182.11L130.146 201.601C132.022 203.041 134.199 203.681 136.43 203.449C139.873 203.096 142.937 200.493 144.424 196.659L165.916 141.439L144.06 132.873C143.81 132.776 143.686 132.493 143.784 132.242C143.881 131.99 144.164 131.868 144.415 131.966L166.725 140.708C166.975 140.805 167.098 141.088 167.001 141.337L145.332 197.007C143.711 201.186 140.339 204.025 136.53 204.416C136.212 204.449 135.891 204.465 135.573 204.465H135.575Z" fill="black"/>
<path d="M111.463 188.336C111.359 188.336 111.255 188.303 111.167 188.236L97.0593 177.428C96.845 177.264 96.8052 176.957 96.9688 176.746C97.1323 176.534 97.4394 176.492 97.6515 176.655L111.759 187.464C111.974 187.627 112.013 187.934 111.85 188.146C111.753 188.272 111.609 188.336 111.463 188.336Z" fill="black"/>
<path d="M139.477 174.617C139.374 174.617 139.27 174.584 139.181 174.518L115.679 156.508C112.813 154.311 109.481 153.15 106.043 153.15L84.3413 153.163C84.0718 153.163 83.853 152.945 83.853 152.678C83.853 152.411 84.0718 152.19 84.3391 152.19L106.041 152.177C109.695 152.177 113.233 153.406 116.271 155.735L139.774 173.745C139.988 173.909 140.028 174.216 139.864 174.427C139.769 174.553 139.623 174.617 139.477 174.617Z" fill="black"/>
<path d="M74.7872 148.501C77.7415 148.501 80.1364 146.108 80.1364 143.156C80.1364 140.204 77.7415 137.811 74.7872 137.811C71.8329 137.811 69.438 140.204 69.438 143.156C69.438 146.108 71.8329 148.501 74.7872 148.501Z" fill="black"/>
<path d="M73.0616 156.318C76.0159 156.318 78.4109 153.925 78.4109 150.973C78.4109 148.022 76.0159 145.629 73.0616 145.629C70.1073 145.629 67.7124 148.022 67.7124 150.973C67.7124 153.925 70.1073 156.318 73.0616 156.318Z" fill="black"/>
<path d="M71.972 164.64C74.9263 164.636 77.3174 162.239 77.3128 159.287C77.3082 156.336 74.9095 153.946 71.9552 153.951C69.0009 153.956 66.6097 156.352 66.6144 159.304C66.619 162.256 69.0177 164.645 71.972 164.64Z" fill="black"/>
<path d="M292.694 326.38L292.742 330.173L292.862 339.218L292.946 345.538L293.193 364.111L293.259 369.215L293.715 403.63H342.355L341.716 353.519L341.548 340.123L341.391 327.925L292.694 326.38Z" fill="#FED101"/>
<path d="M224.214 403.63H276.812L293.262 369.215L303.735 347.302L307.469 339.491L308.028 338.319L292.745 330.173L265.039 315.406L254.014 338.5L253.72 339.118L229.736 389.36C227.529 393.985 225.681 398.758 224.214 403.632V403.63Z" fill="#FED101"/>
<path d="M253.72 339.118L265.04 315.406L341.391 327.928L341.718 353.521L253.72 339.118Z" fill="black"/>
<path d="M342.355 404.118C342.087 404.118 341.871 403.904 341.866 403.637L340.903 327.932C340.898 327.663 341.115 327.442 341.385 327.44C341.641 327.446 341.875 327.652 341.877 327.921L342.841 403.626C342.845 403.895 342.629 404.116 342.359 404.118H342.352H342.355Z" fill="black"/>
<path d="M293.715 404.118C293.447 404.118 293.231 403.904 293.226 403.637L292.709 364.475L284.114 361.928C283.856 361.85 283.708 361.581 283.785 361.323C283.863 361.064 284.132 360.917 284.391 360.994L293.33 363.645C293.536 363.707 293.677 363.892 293.679 364.104L294.201 403.626C294.205 403.895 293.989 404.116 293.719 404.118H293.713H293.715Z" fill="black"/>
<path d="M189.85 300.663L236.382 250.055L305.357 242.129C325.068 239.864 344.894 245.278 360.712 257.245L392.184 281.053C400.025 286.985 401.57 298.146 395.633 305.981C389.696 313.816 378.525 315.359 370.683 309.427L341.756 287.545L353.33 340.341L245.881 338.346L241.659 295.895L214.243 328.93L189.852 300.659L189.85 300.663Z" fill="url(#paint5_linear_1154_2633)"/>
<path d="M392.182 281.54C392.08 281.54 391.976 281.507 391.888 281.441L359.178 256.696C344.185 245.353 325.638 240.291 306.954 242.436L290.558 244.32C290.29 244.355 290.049 244.158 290.018 243.891C289.987 243.624 290.18 243.383 290.447 243.353L306.844 241.469C325.777 239.29 344.573 244.425 359.766 255.921L392.476 280.666C392.69 280.827 392.732 281.134 392.571 281.348C392.476 281.474 392.33 281.54 392.182 281.54Z" fill="black"/>
<path d="M295.842 218.249C295.842 219.921 297.225 221.342 298.98 221.3L301.145 221.25C302.184 221.225 303.18 221.64 303.892 222.398L312.115 231.14L316.446 235.749C316.468 235.769 316.488 235.791 316.506 235.813L322.14 241.801L322.392 242.07L324.069 243.856L324.577 244.397L324.652 244.472L324.732 244.56L326.753 242.666L327.005 242.423L338.344 231.782L338.285 231.723V231.718L338.243 231.676L338.21 231.643V231.639L333.417 226.539C331.974 225.005 333.258 222.133 330.004 218.675L322.166 210.339C319.842 207.865 316.587 206.474 313.189 206.5L311.415 206.513C310.041 206.527 308.834 207.374 308.341 208.613L308.346 208.637L306.349 208.655C304.822 208.668 303.507 209.71 303.14 211.176L301.943 211.185C300.359 211.198 299 212.324 298.697 213.878L298.436 215.227V215.236C298.282 215.26 298.125 215.296 297.979 215.342C297.904 215.366 297.831 215.393 297.76 215.421C297.597 215.488 297.44 215.569 297.294 215.658C297.197 215.722 297.1 215.783 297.013 215.854C296.921 215.925 296.837 216.002 296.753 216.081C296.711 216.123 296.669 216.165 296.636 216.207C296.58 216.267 296.534 216.324 296.485 216.388C296.452 216.43 296.419 216.481 296.384 216.527C296.362 216.547 296.35 216.574 296.333 216.598C296.3 216.658 296.267 216.711 296.231 216.775C296.207 216.808 296.189 216.841 296.176 216.876C296.156 216.909 296.138 216.947 296.125 216.982C296.116 216.987 296.116 216.995 296.116 217C296.088 217.066 296.057 217.134 296.032 217.205C295.977 217.353 295.931 217.508 295.902 217.667C295.864 217.863 295.842 218.066 295.842 218.258V218.249Z" fill="#955B50"/>
<path d="M320.186 216.245C320.056 216.245 319.928 216.194 319.831 216.09L315.814 211.819C314.181 210.081 311.87 209.112 309.49 209.114L306.353 209.138C305.054 209.147 303.929 210.033 303.615 211.291C303.549 211.551 303.284 211.706 303.025 211.646C302.764 211.58 302.605 211.317 302.669 211.057C303.091 209.368 304.603 208.18 306.346 208.167L309.484 208.143C312.128 208.119 314.707 209.22 316.525 211.154L320.542 215.426C320.728 215.622 320.717 215.929 320.52 216.115C320.427 216.203 320.306 216.247 320.186 216.247V216.245Z" fill="black"/>
<path d="M316.621 219.664C316.49 219.664 316.362 219.614 316.265 219.51L310.982 213.891C309.621 212.443 307.699 211.64 305.71 211.637L301.945 211.666C300.597 211.677 299.433 212.642 299.174 213.964L298.907 215.331C298.856 215.596 298.598 215.766 298.335 215.715C298.07 215.664 297.9 215.408 297.95 215.143L298.218 213.777C298.562 212.002 300.127 210.704 301.936 210.69L305.701 210.662H305.763C307.999 210.662 310.158 211.593 311.691 213.223L316.974 218.841C317.16 219.038 317.149 219.344 316.952 219.53C316.859 219.618 316.738 219.662 316.619 219.662L316.621 219.664Z" fill="black"/>
<path d="M324.732 245.046C324.601 245.046 324.473 244.995 324.376 244.891L311.755 231.471C311.57 231.275 311.581 230.968 311.777 230.782C311.974 230.599 312.283 230.608 312.467 230.804L324.754 243.869L337.66 231.754L333.064 226.866C332.388 226.146 332.233 225.237 332.052 224.184C331.807 222.753 331.504 220.971 329.652 219.002L321.815 210.668C319.608 208.322 316.504 206.982 313.282 206.982C313.253 206.982 313.225 206.982 313.194 206.982L311.419 206.995C310.255 207.004 309.225 207.708 308.797 208.787C308.697 209.037 308.414 209.158 308.165 209.061C307.915 208.962 307.791 208.679 307.891 208.43C308.468 206.979 309.848 206.034 311.413 206.021L313.187 206.008C316.709 205.999 320.112 207.436 322.524 210.002L330.364 218.335C332.416 220.519 332.761 222.541 333.015 224.018C333.174 224.954 333.302 225.691 333.777 226.197L338.707 231.438C338.892 231.634 338.881 231.941 338.685 232.127L325.068 244.909C324.975 244.997 324.853 245.041 324.734 245.041L324.732 245.046Z" fill="black"/>
<path d="M323.452 239.264C320.686 239.264 318.017 238.131 316.092 236.083L303.536 222.729C302.922 222.075 302.062 221.715 301.158 221.735L298.991 221.786C297.917 221.799 296.894 221.353 296.196 220.53C295.5 219.706 295.219 218.625 295.425 217.567C295.745 215.918 297.199 214.713 298.88 214.699L302.809 214.671H302.871C305.147 214.671 307.338 215.618 308.898 217.276L313.295 221.952C313.481 222.148 313.47 222.455 313.273 222.64C313.079 222.826 312.769 222.815 312.584 222.618L308.187 217.943C306.813 216.481 304.877 215.644 302.871 215.644H302.818L298.889 215.673C297.67 215.682 296.616 216.556 296.384 217.753C296.233 218.521 296.439 219.305 296.943 219.903C297.446 220.501 298.167 220.826 298.969 220.815L301.136 220.764C302.318 220.74 303.443 221.21 304.247 222.064L316.804 235.418C318.879 237.624 321.903 238.657 324.902 238.178C325.169 238.134 325.417 238.317 325.459 238.582C325.501 238.847 325.319 239.096 325.054 239.138C324.52 239.224 323.985 239.264 323.455 239.264H323.452Z" fill="black"/>
<path d="M324.007 243.938L324.732 244.56L338.349 231.776L335.311 228.617L324.007 243.938Z" fill="black"/>
<path d="M343.559 226.791L317.553 251.112L371.593 308.794C378.314 315.969 389.585 316.342 396.766 309.624C403.947 302.908 404.32 291.647 397.597 284.47L343.556 226.789L343.559 226.791Z" fill="url(#paint6_linear_1154_2633)"/>
<path d="M365.035 301.604C364.905 301.604 364.774 301.553 364.679 301.449L317.462 251.048C317.279 250.852 317.288 250.543 317.484 250.36L343.49 226.038C343.687 225.857 343.996 225.866 344.18 226.06L389.64 274.584C389.824 274.781 389.815 275.09 389.618 275.273C389.422 275.456 389.114 275.447 388.929 275.251L343.802 227.082L318.507 250.739L365.393 300.785C365.577 300.981 365.568 301.29 365.371 301.473C365.276 301.562 365.157 301.604 365.037 301.604H365.035Z" fill="black"/>
<path d="M223.6 246.889L234.25 252.369L240.213 255.435L240.571 254.737L243.402 249.247L244.52 247.075L245.753 244.688L248.649 239.063L254.144 228.396C254.619 227.475 255.466 226.8 256.464 226.539L258.568 225.989C259.094 225.85 259.547 225.59 259.905 225.245C259.969 225.186 260.022 225.128 260.081 225.064C260.574 224.51 260.855 223.78 260.855 223.031C260.855 222.565 260.746 222.095 260.519 221.645C260.477 221.565 260.435 221.486 260.384 221.409C260.338 221.334 260.287 221.256 260.234 221.19C260.187 221.126 260.137 221.064 260.086 221.009C260.022 220.934 259.955 220.861 259.88 220.795C259.829 220.748 259.774 220.702 259.721 220.656C259.655 220.601 259.582 220.55 259.511 220.501C259.441 220.455 259.368 220.408 259.293 220.367C258.789 220.084 258.203 219.947 257.607 219.98H257.589C257.529 219.989 257.476 219.993 257.417 220.002V219.998H257.412L256.789 218.775C256.718 218.631 256.634 218.497 256.546 218.371C256.453 218.241 256.356 218.124 256.252 218.009C256.228 217.984 256.201 217.954 256.173 217.929C256.144 217.901 256.117 217.87 256.089 217.845C256.018 217.779 255.941 217.715 255.861 217.651C255.852 217.647 255.843 217.638 255.832 217.629C255.757 217.569 255.682 217.521 255.6 217.47C255.521 217.419 255.437 217.369 255.349 217.327C255.298 217.298 255.247 217.276 255.198 217.256C255.132 217.223 255.064 217.192 254.993 217.168C254.946 217.148 254.896 217.13 254.845 217.117C254.803 217.099 254.761 217.088 254.719 217.079C254.617 217.051 254.518 217.024 254.412 217.009C254.319 216.991 254.226 216.98 254.133 216.971C254.027 216.958 253.923 216.954 253.817 216.954C253.523 216.954 253.225 216.991 252.927 217.075L251.776 217.395C251.02 216.088 249.467 215.446 247.995 215.854L246.069 216.393V216.368C245.253 215.309 243.861 214.823 242.536 215.192L240.825 215.666C237.551 216.578 234.809 218.812 233.253 221.83L228.015 232.001C225.841 236.22 227.864 238.626 226.901 240.496L223.89 246.331L223.605 246.889H223.6Z" fill="#955B50"/>
<path d="M236.65 226.983C236.574 226.983 236.499 226.965 236.426 226.928C236.188 226.804 236.093 226.51 236.216 226.272L238.901 221.06C240.116 218.7 242.282 216.938 244.84 216.227L247.863 215.386C249.544 214.922 251.323 215.647 252.193 217.152C252.328 217.386 252.249 217.682 252.014 217.817C251.782 217.951 251.484 217.872 251.349 217.638C250.702 216.516 249.376 215.976 248.123 216.322L245.101 217.163C242.803 217.803 240.856 219.384 239.765 221.503L237.08 226.716C236.994 226.884 236.824 226.981 236.647 226.981L236.65 226.983Z" fill="black"/>
<path d="M241.018 229.292C240.943 229.292 240.867 229.274 240.795 229.237C240.556 229.113 240.461 228.82 240.585 228.581L244.115 221.726C245.149 219.72 246.99 218.221 249.166 217.616L252.792 216.607C254.535 216.123 256.398 216.94 257.218 218.552L257.85 219.793C257.971 220.033 257.876 220.325 257.638 220.448C257.397 220.57 257.103 220.475 256.981 220.236L256.349 218.996C255.737 217.795 254.35 217.185 253.053 217.547L249.427 218.556C247.511 219.088 245.892 220.406 244.982 222.175L241.451 229.029C241.365 229.197 241.194 229.294 241.018 229.294V229.292Z" fill="black"/>
<path d="M240.213 255.923C240.138 255.923 240.063 255.905 239.99 255.868L223.377 247.324C223.138 247.201 223.043 246.907 223.167 246.668L226.461 240.273C226.78 239.657 226.698 238.911 226.592 237.968C226.428 236.478 226.203 234.438 227.575 231.776L232.814 221.607C234.425 218.479 237.297 216.143 240.691 215.198L242.401 214.724C243.906 214.307 245.496 214.834 246.449 216.07C246.612 216.282 246.572 216.589 246.36 216.753C246.148 216.918 245.841 216.876 245.678 216.664C244.968 215.744 243.784 215.349 242.662 215.662L240.951 216.137C237.818 217.007 235.169 219.163 233.68 222.053L228.441 232.222C227.204 234.624 227.403 236.418 227.562 237.862C227.679 238.924 227.781 239.842 227.328 240.719L224.256 246.68L240.001 254.779L248.214 238.84C248.338 238.602 248.632 238.507 248.87 238.63C249.109 238.754 249.204 239.048 249.08 239.286L240.644 255.658C240.558 255.826 240.388 255.923 240.211 255.923H240.213Z" fill="black"/>
<path d="M238.353 250.313C238.11 250.313 237.9 250.132 237.869 249.885C237.836 249.618 238.028 249.375 238.295 249.342C241.307 248.978 243.934 247.152 245.319 244.461L253.713 228.171C254.25 227.129 255.209 226.36 256.345 226.064L258.444 225.517C259.202 225.321 259.82 224.797 260.141 224.082C260.461 223.369 260.441 222.559 260.086 221.861C259.533 220.775 258.278 220.223 257.103 220.552L253.32 221.603C251.367 222.146 249.716 223.488 248.788 225.29L245.85 230.994C245.726 231.233 245.434 231.328 245.193 231.204C244.955 231.08 244.86 230.787 244.984 230.548L247.922 224.844C248.974 222.804 250.845 221.281 253.057 220.665L256.84 219.614C258.459 219.161 260.189 219.923 260.952 221.42C261.442 222.38 261.469 223.497 261.027 224.482C260.585 225.466 259.732 226.186 258.687 226.46L256.588 227.007C255.72 227.235 254.986 227.82 254.575 228.617L246.181 244.909C244.648 247.887 241.74 249.907 238.408 250.311C238.388 250.313 238.368 250.316 238.348 250.316L238.353 250.313Z" fill="black"/>
<path d="M223.603 246.891L240.214 255.435L226.897 240.496L223.603 246.891Z" fill="black"/>
<path d="M250.123 259.552L218.317 243.525L185.422 308.697C181.145 317.172 184.552 327.508 193.036 331.782L194.121 332.33C202.603 336.604 212.948 333.2 217.226 324.722L250.121 259.55L250.123 259.552Z" fill="url(#paint7_linear_1154_2633)"/>
<path d="M223.388 313.006C223.315 313.006 223.24 312.988 223.169 312.953C222.928 312.832 222.833 312.54 222.953 312.3L249.469 259.766L218.099 243.96C217.858 243.838 217.763 243.547 217.882 243.306C218.003 243.066 218.295 242.968 218.536 243.09L250.342 259.117C250.457 259.175 250.545 259.276 250.585 259.4C250.625 259.521 250.616 259.656 250.556 259.771L223.821 312.737C223.735 312.907 223.565 313.004 223.386 313.004L223.388 313.006Z" fill="black"/>
<path d="M271.03 249.923L302.345 246.324L301.523 230.818L268.308 234.632L271.03 249.923Z" fill="url(#paint8_linear_1154_2633)"/>
<path d="M285.277 236.29C294.42 235.239 301.649 232.792 301.422 230.823C301.196 228.855 293.6 228.111 284.457 229.162C275.314 230.212 268.086 232.659 268.312 234.628C268.539 236.596 276.134 237.34 285.277 236.29Z" fill="black"/>
<path d="M292.692 235.098L278.235 236.761L277.106 222.78L291.09 221.172L292.692 235.098Z" fill="#955B50"/>
<path d="M291.72 226.652L291.09 221.175L276.631 222.835L278.023 234.924C279.357 235.034 281.996 235.061 284.87 233.736C289.369 231.661 291.242 227.745 291.722 226.652H291.72Z" fill="black"/>
<path d="M282.837 230.934C289.173 230.206 293.657 223.942 292.852 216.943C292.046 209.945 286.256 204.861 279.92 205.589C273.583 206.318 269.099 212.581 269.905 219.58C270.71 226.579 276.5 231.662 282.837 230.934Z" fill="#955B50"/>
<path d="M281.629 231.495C275.542 231.495 270.197 226.431 269.417 219.642C269.026 216.24 269.83 212.878 271.682 210.174C271.832 209.953 272.137 209.896 272.36 210.048C272.581 210.2 272.638 210.503 272.486 210.726C270.767 213.236 270.02 216.364 270.385 219.532C271.158 226.252 276.719 231.158 282.778 230.458C286.267 230.056 288.357 229.272 290.798 225.899C290.955 225.68 291.26 225.632 291.479 225.789C291.698 225.945 291.746 226.25 291.589 226.468C288.951 230.116 286.589 230.999 282.891 231.422C282.469 231.471 282.049 231.495 281.631 231.495H281.629Z" fill="black"/>
<path d="M281.028 204.75C287.756 205.798 292.045 209.953 292.849 216.951C292.922 217.581 292.948 218.203 292.939 218.817L284.879 214.194L270.922 212.556C270.9 212.534 270.875 212.512 270.851 212.49C267.433 209.275 270.009 203.551 274.682 204.006C277.166 204.246 279.428 204.502 281.028 204.752V204.75Z" fill="black"/>
<path d="M277.818 224.773C277.935 225.786 278.852 226.515 279.868 226.398C280.882 226.281 281.611 225.365 281.494 224.349C281.377 223.334 280.46 222.607 279.444 222.724C278.43 222.841 277.7 223.757 277.818 224.773Z" fill="white"/>
<path d="M277.826 237.233C276.341 237.233 274.96 237.169 273.727 237.043C270.252 236.686 268.418 235.875 268.274 234.639C268.243 234.372 268.436 234.131 268.703 234.1C268.97 234.067 269.211 234.262 269.242 234.529C269.288 234.933 270.307 235.714 273.827 236.076C276.918 236.396 280.979 236.299 285.257 235.809C289.534 235.317 293.509 234.489 296.448 233.478C299.793 232.325 300.606 231.336 300.562 230.932C300.531 230.665 300.723 230.425 300.99 230.394C301.262 230.363 301.499 230.555 301.53 230.822C301.673 232.058 300.069 233.264 296.766 234.401C293.761 235.434 289.713 236.279 285.367 236.778C282.716 237.083 280.144 237.237 277.824 237.237L277.826 237.233Z" fill="black"/>
<path d="M200.098 404.014H111.397L120.785 383.876H190.71L200.098 404.014Z" fill="#FDA4FF"/>
<path d="M200.098 404.5H111.397C111.231 404.5 111.077 404.414 110.986 404.275C110.898 404.134 110.884 403.959 110.955 403.807L120.343 383.671C120.423 383.499 120.595 383.388 120.785 383.388H190.709C190.899 383.388 191.072 383.499 191.151 383.671L200.54 403.807C200.61 403.957 200.599 404.134 200.509 404.275C200.418 404.416 200.263 404.5 200.098 404.5ZM112.161 403.526H199.331L190.396 384.364H121.094L112.159 403.526H112.161Z" fill="black"/>
<path d="M153.455 313.041L125.135 394.665H186.261L157.942 313.041C157.204 310.915 154.195 310.915 153.457 313.041H153.455Z" fill="white"/>
<path d="M153.444 313.072L147.151 331.21H164.246L157.953 313.072C157.211 310.935 154.188 310.935 153.446 313.072H153.444Z" fill="#FDA4FF"/>
<path d="M175.901 363.775H136.002L141.87 347.225H170.033L175.901 363.775Z" fill="#FDA4FF"/>
<path d="M186.462 394.665H124.853L130.721 379.501H180.594L186.462 394.665Z" fill="#FDA4FF"/>
<path d="M186.262 395.151H125.135C124.979 395.151 124.831 395.076 124.738 394.945C124.645 394.815 124.623 394.652 124.674 394.504L152.977 312.927C153.386 311.752 154.451 310.993 155.697 310.993C156.944 310.993 158.008 311.752 158.415 312.927L186.719 394.504C186.77 394.652 186.745 394.817 186.655 394.945C186.564 395.073 186.416 395.151 186.257 395.151H186.262ZM125.818 394.177H185.574L157.494 313.245C157.167 312.302 156.351 311.966 155.697 311.966C155.043 311.966 154.226 312.302 153.899 313.245L125.818 394.177Z" fill="black"/>
<path d="M207.318 42.1517L185.855 79.3462C184.386 81.8917 186.224 85.0707 189.165 85.0707H232.089C235.03 85.0707 236.868 81.8917 235.399 79.3462L213.936 42.1517C212.467 39.6041 208.786 39.6041 207.316 42.1517H207.318Z" fill="#FED101"/>
<path d="M230.222 82.5297H191.032C190.179 82.5297 189.417 82.0904 188.991 81.353C188.564 80.6157 188.564 79.7348 188.991 78.9974L208.585 45.0394C209.011 44.2998 209.773 43.8583 210.628 43.8583C211.484 43.8583 212.246 44.2998 212.672 45.0394L232.268 78.9974C232.695 79.7348 232.695 80.6157 232.268 81.353C231.842 82.0904 231.08 82.5297 230.227 82.5297H230.222ZM210.628 44.8319C210.129 44.8319 209.681 45.0901 209.429 45.5251L189.835 79.4831C189.585 79.9158 189.585 80.4346 189.835 80.8673C190.084 81.3 190.533 81.5583 191.032 81.5583H230.222C230.722 81.5583 231.17 81.3 231.42 80.8673C231.67 80.4346 231.672 79.918 231.42 79.4853L211.824 45.5273C211.574 45.0946 211.126 44.8341 210.624 44.8341L210.628 44.8319Z" fill="black"/>
<path d="M213.231 53.4902H208.35V72.1162H213.231V53.4902Z" fill="black"/>
<path d="M213.231 74.1318H208.35V79.0151H213.231V74.1318Z" fill="black"/>
<path d="M328.437 138.94L324.822 131.226L320.023 133.482C318.781 131.913 317.31 130.584 315.681 129.519L317.484 124.521L309.484 121.627L307.681 126.625C305.75 126.402 303.77 126.484 301.812 126.895L299.559 122.086L291.859 125.707L294.112 130.515C292.546 131.76 291.218 133.233 290.155 134.864L285.166 133.058L282.276 141.072L287.265 142.878C287.042 144.812 287.124 146.794 287.534 148.755L282.682 151.289L286.348 158.725L291.147 156.468C292.389 158.038 293.86 159.367 295.489 160.431L293.686 165.429L301.686 168.323L303.489 163.325C305.42 163.548 307.4 163.467 309.358 163.056L311.612 167.864L319.312 164.244L317.058 159.435C318.625 158.19 319.952 156.718 321.015 155.086L326.004 156.892L328.894 148.878L323.905 147.073C324.128 145.139 324.047 143.156 323.636 141.196L328.435 138.94H328.437ZM310.142 154.702C304.78 157.223 298.39 154.912 295.873 149.541C293.357 144.169 295.663 137.769 301.028 135.248C306.39 132.727 312.78 135.039 315.297 140.41C317.814 145.781 315.507 152.181 310.142 154.702Z" fill="#FED101"/>
<defs>
<linearGradient id="paint0_linear_1154_2633" x1="14.3602" y1="71.7872" x2="158.153" y2="71.7872" gradientUnits="userSpaceOnUse">
<stop stop-color="#457EF8"/>
<stop offset="1" stop-color="#5E69DF"/>
</linearGradient>
<linearGradient id="paint1_linear_1154_2633" x1="144.912" y1="71.7872" x2="277.555" y2="71.7872" gradientUnits="userSpaceOnUse">
<stop stop-color="#457EF8"/>
<stop offset="1" stop-color="#5E69DF"/>
</linearGradient>
<linearGradient id="paint2_linear_1154_2633" x1="269.704" y1="71.7872" x2="413.497" y2="71.7872" gradientUnits="userSpaceOnUse">
<stop stop-color="#457EF8"/>
<stop offset="1" stop-color="#5E69DF"/>
</linearGradient>
<linearGradient id="paint3_linear_1154_2633" x1="15.6408" y1="295.228" x2="103.083" y2="295.228" gradientUnits="userSpaceOnUse">
<stop stop-color="#457EF8"/>
<stop offset="1" stop-color="#5E69DF"/>
</linearGradient>
<linearGradient id="paint4_linear_1154_2633" x1="64.0349" y1="296.437" x2="125.652" y2="296.437" gradientUnits="userSpaceOnUse">
<stop stop-color="#457EF8"/>
<stop offset="1" stop-color="#5E69DF"/>
</linearGradient>
<linearGradient id="paint5_linear_1154_2633" x1="172.132" y1="290.983" x2="426.626" y2="290.983" gradientUnits="userSpaceOnUse">
<stop stop-color="#457EF8"/>
<stop offset="1" stop-color="#5E69DF"/>
</linearGradient>
<linearGradient id="paint6_linear_1154_2633" x1="310.373" y1="270.609" x2="413.501" y2="270.609" gradientUnits="userSpaceOnUse">
<stop stop-color="#457EF8"/>
<stop offset="1" stop-color="#5E69DF"/>
</linearGradient>
<linearGradient id="paint7_linear_1154_2633" x1="177.945" y1="288.85" x2="258.826" y2="288.85" gradientUnits="userSpaceOnUse">
<stop stop-color="#457EF8"/>
<stop offset="1" stop-color="#5E69DF"/>
</linearGradient>
<linearGradient id="paint8_linear_1154_2633" x1="265.428" y1="240.37" x2="306.796" y2="240.37" gradientUnits="userSpaceOnUse">
<stop stop-color="#457EF8"/>
<stop offset="1" stop-color="#5E69DF"/>
</linearGradient>
</defs>
</svg>
