<svg width="58" height="58" viewBox="0 0 58 58" fill="none" xmlns="http://www.w3.org/2000/svg">
<path d="M54.9193 43.71C53.3575 42.1482 48.434 38.5129 43.5457 35.6982C43.4928 35.7776 43.4399 35.8571 43.3868 35.9453C48.9015 27.06 47.8162 15.2276 40.0957 7.50705C31.0957 -1.48412 16.5104 -1.48412 7.51036 7.50705C-1.48964 16.5159 -1.48081 31.0923 7.51036 40.0924C15.1604 47.7336 26.8339 48.8895 35.6927 43.5424C38.2427 47.9718 41.9574 53.1689 43.7133 54.9248C46.8015 58.013 51.831 58.0042 54.9192 54.916C58.0075 51.8188 58.0075 46.8071 54.9193 43.71ZM34.0252 34.0218C28.3781 39.66 19.2369 39.66 13.5899 34.0129C7.95163 28.3747 7.9428 19.2335 13.5899 13.5865C19.2281 7.94823 28.3781 7.94823 34.0163 13.5865C39.6634 19.2335 39.6634 28.3835 34.0252 34.0218Z" fill="#FFA500"/>
</svg>
