<svg width="133" height="44" viewBox="0 0 133 44" fill="none" xmlns="http://www.w3.org/2000/svg">
<g clip-path="url(#clip0_1154_1931)">
<path d="M28.9812 12.8909C27.7867 11.8124 26.5253 10.7922 25.2342 9.70642C24.6926 10.1655 24.2919 9.83759 23.8096 9.4878C22.8154 8.75909 21.784 8.05953 20.7156 7.43283C19.521 6.73327 18.23 6.34705 16.8054 6.63853C16.0189 6.79885 15.5143 7.25794 15.3511 7.99394C15.2324 8.55505 15.1804 9.1526 15.2472 9.72099C15.5366 12.2642 16.9167 14.2172 18.8087 15.8786C20.0923 17.0008 21.4056 18.1085 22.6076 19.3036C25.1823 21.8613 26.7034 24.7398 24.9894 28.5582C27.1708 27.3413 29.1667 26.1608 31.2368 25.1041C32.5872 24.4118 33.6631 23.5592 34.0118 22.0362V20.812C33.3663 17.5401 31.3927 15.0697 28.9812 12.8909Z" fill="url(#paint0_linear_1154_1931)"/>
<path d="M21.1464 20.3092C17.0061 17.8535 12.8511 15.4268 8.72566 12.9565C8.19886 12.6432 7.82045 12.6359 7.28622 12.9565C4.87479 14.3775 2.42627 15.7548 0 17.1466V17.3215C0.267112 17.4454 0.541644 17.5474 0.786497 17.6931C7.00427 21.2711 13.222 24.8564 19.4398 28.4344C19.9221 28.7113 20.4341 28.9809 20.9757 29.1048C21.7251 29.2797 22.4819 29.1849 22.9642 28.4999C24.4927 26.343 23.4465 21.6865 21.1464 20.3238V20.3092Z" fill="url(#paint1_linear_1154_1931)"/>
<path d="M24.2995 7.65893C24.7521 7.97957 25.0489 8.03786 25.5386 7.75366C27.7052 6.50028 29.9014 5.29062 32.0903 4.05909C32.3277 3.92063 32.5577 3.76032 32.8545 3.57814C30.9551 1.98955 29.0556 0.634139 26.7109 0.00744629H25.4644C22.8378 1.52317 20.2112 3.0316 17.7256 4.46717C18.7569 4.7878 19.8551 4.97727 20.7974 5.45093C22.0291 6.07034 23.1717 6.87192 24.2995 7.67351V7.65893Z" fill="url(#paint2_linear_1154_1931)"/>
<path d="M14.5576 27.5526C12.2353 26.2555 9.94254 24.9292 7.62757 23.6175C7.46434 23.5228 7.27142 23.4645 7.04883 23.3698V43.73C7.21206 43.679 7.33078 43.6644 7.41982 43.6134C9.84608 42.2143 12.2798 40.8224 14.6838 39.3796C14.9286 39.2338 15.1141 38.7747 15.1141 38.4614C15.1438 35.1676 15.1215 31.8811 15.1438 28.5873C15.1438 28.0918 15.0028 27.8003 14.5502 27.5526H14.5576Z" fill="url(#paint3_linear_1154_1931)"/>
</g>
<path d="M123.513 30.6468V17.1697H124.708C124.759 17.474 124.802 17.7711 124.868 18.1624C125.071 18.0392 125.23 17.9522 125.382 17.8508C128.107 15.9524 130.961 17.0248 131.78 20.2564C131.853 20.5317 131.932 20.8071 132.012 21.0824V22.9953C131.838 23.5387 131.7 24.1039 131.49 24.6256C130.65 26.7051 128.534 27.6253 126.541 26.7703C125.969 26.524 125.455 26.1472 124.73 25.7197V30.6396H123.513V30.6468ZM124.795 21.9229C124.795 22.4156 124.853 22.9156 124.781 23.3938C124.643 24.285 125.056 24.8212 125.795 25.1835C126.128 25.3502 126.462 25.5386 126.81 25.6617C128.375 26.2197 129.737 25.64 130.338 24.0966C130.882 22.6982 130.889 21.2563 130.36 19.8506C129.845 18.5029 128.614 17.8508 127.237 18.1189C125.599 18.4377 124.802 19.3362 124.802 20.8723C124.802 21.2201 124.802 21.5679 124.802 21.9157L124.795 21.9229Z" fill="white"/>
<path d="M81.1685 13.0831V22.0316C82.4293 20.5752 83.6031 19.3072 84.6537 17.9523C85.2769 17.1552 85.958 16.9306 87.0086 17.206C86.313 17.9668 85.6609 18.6841 85.0088 19.3942C84.318 20.1477 84.2214 20.9834 84.7189 21.9012C85.5884 23.4953 86.4507 25.0966 87.3564 26.7631C86.5231 26.9732 85.9652 26.966 85.5667 26.082C84.8639 24.5314 84.0306 23.0388 83.1756 21.3795C82.4583 22.1983 81.5453 22.8432 81.2265 23.7127C80.9004 24.5966 81.154 25.7052 81.154 26.7921H79.7773V13.0831H81.1685Z" fill="white"/>
<path d="M54.091 13.0831V18.1479C54.6851 17.8726 55.1633 17.6117 55.6706 17.4378C56.2937 17.2277 56.9313 16.9886 57.5762 16.9306C59.0253 16.8074 60.1847 17.6697 60.2571 19.1551C60.3875 21.6838 60.2933 24.2271 60.2933 26.8211H59.1558C59.1413 26.524 59.1195 26.2197 59.1195 25.9154C59.1195 23.9735 59.1268 22.0389 59.1195 20.097C59.105 18.5319 58.3008 17.8798 56.7792 18.1914C56.5835 18.2349 56.3806 18.2783 56.1922 18.3363C54.2069 18.9449 54.1127 19.0754 54.1127 21.1404C54.1127 23.0171 54.1127 24.8865 54.1127 26.8211H52.8882V13.0831H54.1055H54.091Z" fill="white"/>
<path d="M110.601 17.1698C110.137 18.6914 109.695 20.1551 109.246 21.6187C108.79 23.1114 108.333 24.604 107.855 26.0966C107.739 26.4589 107.717 27.0168 107.137 26.8502C106.869 26.7705 106.587 26.4154 106.493 26.1256C105.891 24.2852 105.348 22.423 104.783 20.5681C104.703 20.3073 104.609 20.0464 104.435 19.5464C104.058 20.7565 103.754 21.7347 103.457 22.7201C103.087 23.9374 102.732 25.1619 102.326 26.3647C102.254 26.5748 101.979 26.8067 101.761 26.8429C101.602 26.8719 101.268 26.6473 101.21 26.4661C100.247 23.3795 99.3121 20.2928 98.3701 17.2061C99.2903 16.9017 99.6671 17.2568 99.8917 18.0901C100.435 20.0681 101.073 22.0173 101.747 24.2272C102.268 22.5534 102.718 21.1333 103.16 19.7059C103.362 19.0392 103.522 18.3581 103.783 17.7205C103.884 17.4669 104.217 17.1626 104.442 17.1553C104.667 17.1553 105.022 17.4669 105.101 17.7133C105.783 19.829 106.42 21.9665 107.145 24.3431C107.319 23.8577 107.435 23.5896 107.514 23.307C108.05 21.539 108.587 19.7638 109.123 17.9886C109.306 17.3751 109.797 17.1022 110.594 17.1698H110.601Z" fill="white"/>
<path d="M120.049 26.8139C119.387 26.9153 118.941 26.4516 118.709 25.4227C118.484 25.5894 118.31 25.7705 118.093 25.8792C117.303 26.2777 116.535 26.7921 115.694 26.995C114.318 27.3356 113.151 26.7124 112.658 25.5894C112.13 24.4011 112.499 22.8939 113.615 22.0969C114.122 21.7346 114.724 21.4665 115.318 21.2709C116.223 20.9738 117.151 20.7347 118.086 20.568C118.81 20.4449 118.89 20.0536 118.767 19.4667C118.542 18.3726 117.542 17.677 116.405 18.0393C115.412 18.3581 114.499 18.9378 113.441 19.4594C113.282 19.3218 113.006 19.0827 112.738 18.8508C113.803 17.4017 115.948 16.6046 117.622 16.9959C119.165 17.3582 120.035 18.4161 120.049 20.0464C120.071 22.2708 120.049 24.5025 120.049 26.8066V26.8139ZM118.796 21.2491C117.433 21.7274 116.194 22.0824 115.035 22.6186C114.571 22.836 114.18 23.4011 113.97 23.9011C113.571 24.8285 114.137 25.7777 115.137 25.8937C116.528 26.0531 117.622 25.3285 118.672 24.5387C118.752 24.4808 118.796 24.3358 118.796 24.2344C118.803 23.3214 118.796 22.4012 118.796 21.2491Z" fill="white"/>
<path d="M68.894 17.1552H70.0316C70.0679 17.4813 70.0968 17.7638 70.1403 18.1261C70.8142 17.8291 71.4518 17.5102 72.1184 17.2639C74.7486 16.3075 76.3934 17.4523 76.4151 20.2491C76.4296 22.4156 76.4151 24.5821 76.4151 26.8138H75.1181C75.1181 26.5022 75.1181 26.1979 75.1181 25.8936C75.1181 23.9517 75.1326 22.0099 75.1181 20.068C75.0964 18.5029 74.2704 17.8653 72.7488 18.2058C72.5531 18.2493 72.3503 18.3 72.1619 18.358C70.162 19.0029 70.0968 19.0898 70.0968 21.1911C70.0968 23.0388 70.0968 24.8864 70.0968 26.8065H68.9013V17.1552H68.894Z" fill="white"/>
<path d="M89.1821 25.1834C89.5589 24.9153 89.8777 24.6834 90.2183 24.4371C90.5878 24.7342 90.8776 25.1109 91.2617 25.2486C92.0225 25.5384 92.8267 25.8428 93.6238 25.8718C94.5295 25.9007 95.1744 25.2196 95.2686 24.4878C95.3772 23.5966 94.8121 23.1401 94.1165 22.8648C93.2325 22.5097 92.305 22.2706 91.4211 21.9373C89.9574 21.3866 89.3126 20.4229 89.5009 19.1332C89.6676 17.9811 90.6965 17.0827 92.0732 16.9377C93.6165 16.7783 94.986 17.1551 96.1453 18.3941C95.8265 18.6767 95.5367 18.9303 95.341 19.1042C94.5947 18.7202 93.9643 18.3144 93.276 18.0826C92.8702 17.9449 92.363 18.0246 91.921 18.1115C91.2762 18.242 90.711 18.6912 90.7979 19.3361C90.8631 19.8071 91.3341 20.2925 91.7399 20.6186C92.0804 20.8867 92.6021 20.9229 93.0296 21.0823C93.7325 21.3432 94.457 21.5605 95.1164 21.9083C96.1453 22.459 96.6815 23.3575 96.5656 24.553C96.4569 25.6834 95.6019 26.6543 94.4498 26.9296C92.3703 27.4223 90.6675 26.7195 89.1894 25.1762L89.1821 25.1834Z" fill="white"/>
<path d="M50.2002 26.0313V26.9298C48.0192 27.6616 46.6425 26.7414 46.6208 24.5459C46.6063 22.7779 46.6208 21.01 46.6208 19.242C46.6208 18.9594 46.5918 18.6768 46.5773 18.3435C46.0411 18.3146 45.5556 18.2928 45.0122 18.2638V17.1697C45.4977 17.1335 46.0049 17.0973 46.599 17.0538V13.6121H47.8525V17.0828H50.1857V18.2711H47.867C47.867 18.7928 47.867 19.242 47.867 19.6912C47.867 21.1404 47.867 22.5895 47.867 24.0387C47.867 25.5893 48.2656 25.9733 49.8234 25.9661C49.9538 25.9661 50.0842 26.0095 50.2074 26.0385L50.2002 26.0313Z" fill="white"/>
<path d="M64.0034 17.1553H65.1338V26.8139H64.0034V17.1553Z" fill="white"/>
<path d="M65.1769 13.2933V14.7352H64.0176V13.2933H65.1769Z" fill="white"/>
<defs>
<linearGradient id="paint0_linear_1154_1931" x1="13.6275" y1="17.5494" x2="36.4695" y2="17.5494" gradientUnits="userSpaceOnUse">
<stop stop-color="#457EF8"/>
<stop offset="1" stop-color="#5E69DF"/>
</linearGradient>
<linearGradient id="paint1_linear_1154_1931" x1="-2.00403" y1="20.95" x2="26.7811" y2="20.95" gradientUnits="userSpaceOnUse">
<stop stop-color="#457EF8"/>
<stop offset="1" stop-color="#5E69DF"/>
</linearGradient>
<linearGradient id="paint2_linear_1154_1931" x1="16.4454" y1="3.97208" x2="34.8329" y2="3.97208" gradientUnits="userSpaceOnUse">
<stop stop-color="#457EF8"/>
<stop offset="1" stop-color="#5E69DF"/>
</linearGradient>
<linearGradient id="paint3_linear_1154_1931" x1="6.36387" y1="33.5499" x2="16.2024" y2="33.5499" gradientUnits="userSpaceOnUse">
<stop stop-color="#457EF8"/>
<stop offset="1" stop-color="#5E69DF"/>
</linearGradient>
<clipPath id="clip0_1154_1931">
<rect width="34.0123" height="43.7301" fill="white"/>
</clipPath>
</defs>
</svg>
