<svg width="133" height="44" viewBox="0 0 133 44" fill="none" xmlns="http://www.w3.org/2000/svg">
<g clip-path="url(#clip0_1154_817)">
<path d="M28.9812 13.0259C27.7867 11.9474 26.5253 10.9272 25.2342 9.84143C24.6926 10.3005 24.2919 9.9726 23.8096 9.62281C22.8154 8.8941 21.784 8.19454 20.7156 7.56784C19.521 6.86828 18.23 6.48206 16.8054 6.77354C16.0189 6.93386 15.5143 7.39295 15.3511 8.12895C15.2324 8.69006 15.1804 9.28761 15.2472 9.856C15.5366 12.3992 16.9167 14.3522 18.8087 16.0136C20.0923 17.1358 21.4056 18.2435 22.6076 19.4386C25.1823 21.9964 26.7034 24.8748 24.9894 28.6932C27.1708 27.4763 29.1667 26.2958 31.2368 25.2391C32.5872 24.5469 33.6631 23.6943 34.0118 22.1712V20.947C33.3663 17.6751 31.3927 15.2048 28.9812 13.0259Z" fill="url(#paint0_linear_1154_817)"/>
<path d="M21.1464 20.4442C17.0061 17.9885 12.8511 15.5618 8.72566 13.0915C8.19886 12.7782 7.82045 12.7709 7.28622 13.0915C4.87479 14.5125 2.42627 15.8898 0 17.2816V17.4565C0.267112 17.5804 0.541644 17.6824 0.786497 17.8281C7.00427 21.4061 13.222 24.9914 19.4398 28.5694C19.9221 28.8463 20.4341 29.1159 20.9757 29.2398C21.7251 29.4147 22.4819 29.3199 22.9642 28.635C24.4927 26.478 23.4465 21.8215 21.1464 20.4588V20.4442Z" fill="url(#paint1_linear_1154_817)"/>
<path d="M24.2998 7.79394C24.7524 8.11458 25.0492 8.17287 25.5389 7.88867C27.7054 6.63529 29.9017 5.42562 32.0905 4.1941C32.328 4.05564 32.558 3.89533 32.8548 3.71315C30.9553 2.12455 29.0558 0.769149 26.7112 0.142456H25.4647C22.8381 1.65818 20.2115 3.16661 17.7258 4.60218C18.7572 4.92281 19.8553 5.11228 20.7976 5.58594C22.0293 6.20535 23.1719 7.00693 24.2998 7.80852V7.79394Z" fill="url(#paint2_linear_1154_817)"/>
<path d="M14.5576 27.6876C12.2353 26.3905 9.94254 25.0642 7.62757 23.7525C7.46434 23.6578 7.27142 23.5995 7.04883 23.5048V43.865C7.21206 43.814 7.33078 43.7994 7.41982 43.7484C9.84608 42.3493 12.2798 40.9574 14.6838 39.5146C14.9286 39.3688 15.1141 38.9098 15.1141 38.5964C15.1438 35.3026 15.1215 32.0161 15.1438 28.7223C15.1438 28.2268 15.0028 27.9353 14.5502 27.6876H14.5576Z" fill="url(#paint3_linear_1154_817)"/>
</g>
<path d="M123.513 30.7818V17.3047H124.708C124.759 17.609 124.803 17.9061 124.868 18.2974C125.071 18.1742 125.23 18.0873 125.382 17.9858C128.107 16.0874 130.962 17.1598 131.78 20.3914C131.853 20.6667 131.933 20.9421 132.012 21.2174V23.1303C131.838 23.6737 131.701 24.2389 131.491 24.7606C130.65 26.8401 128.534 27.7603 126.542 26.9053C125.969 26.659 125.455 26.2822 124.73 25.8547V30.7746H123.513V30.7818ZM124.795 22.0579C124.795 22.5506 124.853 23.0506 124.781 23.5288C124.643 24.42 125.056 24.9562 125.795 25.3185C126.129 25.4852 126.462 25.6736 126.81 25.7967C128.375 26.3547 129.737 25.775 130.338 24.2317C130.882 22.8332 130.889 21.3913 130.36 19.9856C129.846 18.6379 128.614 17.9858 127.237 18.2539C125.6 18.5727 124.803 19.4712 124.803 21.0073C124.803 21.3551 124.803 21.7029 124.803 22.0507L124.795 22.0579Z" fill="#1B2344"/>
<path d="M81.1685 13.2181V22.1666C82.4293 20.7102 83.6031 19.4422 84.6537 18.0873C85.2769 17.2903 85.958 17.0656 87.0086 17.341C86.313 18.1018 85.6609 18.8191 85.0088 19.5292C84.318 20.2827 84.2214 21.1184 84.7189 22.0362C85.5884 23.6303 86.4507 25.2316 87.3564 26.8981C86.5231 27.1082 85.9652 27.101 85.5667 26.217C84.8639 24.6664 84.0306 23.1738 83.1756 21.5145C82.4583 22.3333 81.5453 22.9782 81.2265 23.8477C80.9004 24.7316 81.154 25.8402 81.154 26.9271H79.7773V13.2181H81.1685Z" fill="#1B2344"/>
<path d="M54.0912 13.2181V18.2829C54.6854 18.0076 55.1636 17.7467 55.6708 17.5728C56.2939 17.3627 56.9316 17.1236 57.5764 17.0656C59.0256 16.9425 60.1849 17.8047 60.2574 19.2901C60.3878 21.8188 60.2936 24.3621 60.2936 26.9561H59.156C59.1415 26.659 59.1198 26.3547 59.1198 26.0504C59.1198 24.1085 59.127 22.1739 59.1198 20.232C59.1053 18.6669 58.301 18.0148 56.7794 18.3264C56.5838 18.3699 56.3809 18.4133 56.1925 18.4713C54.2072 19.08 54.113 19.2104 54.113 21.2754C54.113 23.1521 54.113 25.0215 54.113 26.9561H52.8884V13.2181H54.1057H54.0912Z" fill="#1B2344"/>
<path d="M110.601 17.3049C110.137 18.8265 109.695 20.2901 109.246 21.7537C108.79 23.2464 108.333 24.739 107.855 26.2316C107.739 26.5939 107.717 27.1518 107.137 26.9852C106.869 26.9055 106.587 26.5504 106.493 26.2606C105.891 24.4202 105.348 22.558 104.783 20.7031C104.703 20.4423 104.609 20.1814 104.435 19.6815C104.058 20.8915 103.754 21.8697 103.457 22.8551C103.087 24.0724 102.732 25.2969 102.326 26.4997C102.254 26.7098 101.979 26.9417 101.761 26.9779C101.602 27.0069 101.268 26.7823 101.21 26.6012C100.247 23.5145 99.3121 20.4278 98.3701 17.3411C99.2903 17.0368 99.6671 17.3918 99.8917 18.2251C100.435 20.2032 101.073 22.1523 101.747 24.3622C102.268 22.6884 102.718 21.2683 103.16 19.8409C103.362 19.1743 103.522 18.4932 103.783 17.8555C103.884 17.6019 104.217 17.2976 104.442 17.2904C104.667 17.2904 105.022 17.6019 105.101 17.8483C105.783 19.964 106.42 22.1015 107.145 24.4781C107.319 23.9927 107.435 23.7246 107.514 23.442C108.05 21.674 108.587 19.8988 109.123 18.1236C109.306 17.5101 109.797 17.2372 110.594 17.3049H110.601Z" fill="#1B2344"/>
<path d="M120.049 26.9489C119.388 27.0503 118.941 26.5866 118.709 25.5577C118.484 25.7244 118.31 25.9055 118.093 26.0142C117.303 26.4127 116.535 26.9272 115.695 27.13C114.318 27.4706 113.151 26.8475 112.659 25.7244C112.13 24.5361 112.499 23.0289 113.615 22.2319C114.122 21.8696 114.724 21.6015 115.318 21.4059C116.224 21.1088 117.151 20.8697 118.086 20.7031C118.81 20.5799 118.89 20.1886 118.767 19.6017C118.542 18.5076 117.542 17.812 116.405 18.1743C115.412 18.4931 114.499 19.0728 113.441 19.5945C113.282 19.4568 113.007 19.2177 112.738 18.9858C113.804 17.5367 115.948 16.7396 117.622 17.1309C119.165 17.4932 120.035 18.5511 120.049 20.1814C120.071 22.4058 120.049 24.6375 120.049 26.9417V26.9489ZM118.796 21.3842C117.434 21.8624 116.195 22.2174 115.035 22.7536C114.572 22.971 114.18 23.5361 113.97 24.0361C113.572 24.9636 114.137 25.9128 115.137 26.0287C116.528 26.1881 117.622 25.4635 118.673 24.6737C118.752 24.6158 118.796 24.4708 118.796 24.3694C118.803 23.4564 118.796 22.5362 118.796 21.3842Z" fill="#1B2344"/>
<path d="M68.8943 17.2902H70.0319C70.0681 17.6163 70.0971 17.8989 70.1406 18.2611C70.8144 17.9641 71.452 17.6453 72.1186 17.3989C74.7489 16.4425 76.3936 17.5873 76.4154 20.3842C76.4299 22.5506 76.4154 24.7171 76.4154 26.9488H75.1184C75.1184 26.6372 75.1184 26.3329 75.1184 26.0286C75.1184 24.0867 75.1329 22.1449 75.1184 20.203C75.0967 18.6379 74.2706 18.0003 72.749 18.3408C72.5534 18.3843 72.3505 18.435 72.1621 18.493C70.1623 19.1379 70.0971 19.2248 70.0971 21.3261C70.0971 23.1738 70.0971 25.0214 70.0971 26.9416H68.9015V17.2902H68.8943Z" fill="#1B2344"/>
<path d="M89.1824 25.3184C89.5592 25.0503 89.878 24.8185 90.2185 24.5721C90.588 24.8692 90.8779 25.246 91.2619 25.3836C92.0227 25.6735 92.827 25.9778 93.624 26.0068C94.5297 26.0357 95.1746 25.3546 95.2688 24.6228C95.3775 23.7316 94.8123 23.2751 94.1167 22.9998C93.2327 22.6447 92.3053 22.4056 91.4213 22.0723C89.9577 21.5216 89.3128 20.558 89.5012 19.2682C89.6678 18.1161 90.6967 17.2177 92.0734 17.0727C93.6168 16.9133 94.9862 17.2901 96.1455 18.5291C95.8267 18.8117 95.5369 19.0653 95.3413 19.2392C94.595 18.8552 93.9646 18.4494 93.2762 18.2176C92.8705 18.0799 92.3633 18.1596 91.9213 18.2466C91.2764 18.377 90.7112 18.8262 90.7982 19.4711C90.8634 19.9421 91.3344 20.4275 91.7401 20.7536C92.0807 21.0217 92.6024 21.0579 93.0299 21.2173C93.7327 21.4782 94.4573 21.6955 95.1166 22.0433C96.1455 22.594 96.6817 23.4925 96.5658 24.688C96.4571 25.8184 95.6021 26.7893 94.45 27.0646C92.3705 27.5574 90.6678 26.8545 89.1896 25.3112L89.1824 25.3184Z" fill="#1B2344"/>
<path d="M50.2002 26.1663V27.0648C48.0192 27.7966 46.6425 26.8764 46.6208 24.6809C46.6063 22.9129 46.6208 21.145 46.6208 19.377C46.6208 19.0944 46.5918 18.8119 46.5773 18.4785C46.0411 18.4496 45.5556 18.4278 45.0122 18.3988V17.3047C45.4977 17.2685 46.0049 17.2323 46.599 17.1888V13.7471H47.8525V17.2178H50.1857V18.4061H47.867C47.867 18.9278 47.867 19.377 47.867 19.8263C47.867 21.2754 47.867 22.7246 47.867 24.1737C47.867 25.7243 48.2656 26.1083 49.8234 26.1011C49.9538 26.1011 50.0842 26.1446 50.2074 26.1735L50.2002 26.1663Z" fill="#1B2344"/>
<path d="M64.0034 17.2903H65.1338V26.9489H64.0034V17.2903Z" fill="#1B2344"/>
<path d="M65.1771 13.4283V14.8702H64.0178V13.4283H65.1771Z" fill="#1B2344"/>
<defs>
<linearGradient id="paint0_linear_1154_817" x1="13.6275" y1="17.6844" x2="36.4695" y2="17.6844" gradientUnits="userSpaceOnUse">
<stop stop-color="#457EF8"/>
<stop offset="1" stop-color="#5E69DF"/>
</linearGradient>
<linearGradient id="paint1_linear_1154_817" x1="-2.00403" y1="21.085" x2="26.7811" y2="21.085" gradientUnits="userSpaceOnUse">
<stop stop-color="#457EF8"/>
<stop offset="1" stop-color="#5E69DF"/>
</linearGradient>
<linearGradient id="paint2_linear_1154_817" x1="16.4457" y1="4.10709" x2="34.8332" y2="4.10709" gradientUnits="userSpaceOnUse">
<stop stop-color="#457EF8"/>
<stop offset="1" stop-color="#5E69DF"/>
</linearGradient>
<linearGradient id="paint3_linear_1154_817" x1="6.36387" y1="33.6849" x2="16.2024" y2="33.6849" gradientUnits="userSpaceOnUse">
<stop stop-color="#457EF8"/>
<stop offset="1" stop-color="#5E69DF"/>
</linearGradient>
<clipPath id="clip0_1154_817">
<rect width="34.0123" height="43.7301" fill="white" transform="translate(0 0.13501)"/>
</clipPath>
</defs>
</svg>
