<svg width="60" height="60" viewBox="0 0 60 60" fill="none" xmlns="http://www.w3.org/2000/svg">
<path fill-rule="evenodd" clip-rule="evenodd" d="M9.375 9.375V52.5C9.375 53.9925 9.9675 55.4231 11.0231 56.4769C12.0769 57.5325 13.5075 58.125 15 58.125H45C46.4925 58.125 47.9231 57.5325 48.9769 56.4769C50.0325 55.4231 50.625 53.9925 50.625 52.5C50.625 44.3363 50.625 25.0387 50.625 16.875C50.625 15.3825 50.0325 13.9519 48.9769 12.8981C48.3787 12.2981 47.6587 11.8481 46.875 11.5725V9.375C46.875 7.8825 46.2825 6.45187 45.2269 5.39812C44.1731 4.3425 42.7425 3.75 41.25 3.75C34.7569 3.75 21.4931 3.75 15 3.75C13.5075 3.75 12.0769 4.3425 11.0231 5.39812C9.9675 6.45187 9.375 7.8825 9.375 9.375ZM18.75 15L13.125 14.9569V52.5C13.125 52.9969 13.3219 53.475 13.6744 53.8256C14.025 54.1781 14.5031 54.375 15 54.375H18.75V15ZM43.125 28.125V24.375C43.125 23.3813 42.7294 22.4269 42.0262 21.7238C41.3231 21.0206 40.3687 20.625 39.375 20.625C36.8794 20.625 32.4956 20.625 30 20.625C29.0063 20.625 28.0519 21.0206 27.3488 21.7238C26.6456 22.4269 26.25 23.3813 26.25 24.375V28.125C26.25 29.1187 26.6456 30.0731 27.3488 30.7762C28.0519 31.4794 29.0063 31.875 30 31.875H39.375C40.3687 31.875 41.3231 31.4794 42.0262 30.7762C42.7294 30.0731 43.125 29.1187 43.125 28.125ZM13.125 9.375C13.125 8.87813 13.3219 8.4 13.6744 8.04938C14.025 7.69688 14.5031 7.5 15 7.5H41.25C41.7469 7.5 42.225 7.69688 42.5756 8.04938C42.9281 8.4 43.125 8.87813 43.125 9.375V11.25H15C14.5031 11.25 14.025 11.0531 13.6744 10.7006C13.3219 10.35 13.125 9.87187 13.125 9.375Z" fill="#FFA500"/>
</svg>
