<svg width="60" height="60" viewBox="0 0 60 60" fill="none" xmlns="http://www.w3.org/2000/svg">
<path d="M33.5382 43.6195H21.3891C19.6036 43.6195 18.1556 42.1715 18.1556 40.3861V28.9496L22.8145 29.8472C24.4269 29.8472 25.2396 27.9026 24.1012 26.7578L20.8559 23.5125L14.5986 17.2552C14.2385 16.9016 13.7784 16.7178 13.3119 16.7178C12.8518 16.7178 12.3928 16.9016 12.0327 17.2552L5.77544 23.5125L2.53123 26.7578C1.39286 27.9026 2.20552 29.8472 3.81795 29.8472L8.47679 28.9496V44.2398C8.47679 49.2426 12.5326 53.2994 17.5365 53.2994H18.1556H33.7403C36.4621 53.2994 38.6593 51.0517 38.5776 48.3117C38.498 45.6619 36.188 43.6195 33.5382 43.6195Z" fill="#FFA500"/>
<path d="M26.4606 15.6789H38.6097C40.3952 15.6789 41.8432 17.1268 41.8432 18.9123V30.3487L37.1844 29.4511C35.5719 29.4511 34.7593 31.3957 35.8976 32.5405L39.1429 35.7858L45.4002 42.0431C45.7603 42.3968 46.2204 42.5806 46.6869 42.5806C47.147 42.5806 47.606 42.3968 47.9661 42.0431L54.2234 35.7858L57.4687 32.5405C58.6071 31.3957 57.7944 29.4511 56.182 29.4511L51.5231 30.3487V15.0597C51.5231 10.0569 47.4673 6 42.4634 6H41.8443H26.2586C23.5368 6 21.3396 8.24772 21.4213 10.9878C21.5008 13.6365 23.8109 15.6789 26.4606 15.6789Z" fill="#FFA500"/>
</svg>
